<svg width="198" height="30" viewBox="0 0 198 30" fill="none" xmlns="http://www.w3.org/2000/svg">
<rect width="198" height="30" fill="#F5F5F5"/>
<g id="Collection_desktop" clip-path="url(#clip0_0_1)">
<rect width="1466" height="3710" transform="translate(-61 -27)" fill="white"/>
<path id="Rectangle 288" d="M-61 -27H1405V63H-61V-27Z" fill="white"/>
<g id="Group 1721">
<path id="Vector" d="M154.9 16.4876C153.517 13.5765 149.551 11.8501 146.243 12.7133C145.679 12.8614 145.123 13.0528 144.534 13.2551C144.354 13.3165 143.855 13.4898 143.855 13.4898C143.855 13.4898 143.859 12.7747 143.862 12.576C143.888 11.283 143.917 9.99357 143.942 8.70053C143.992 6.37452 144.039 4.05211 144.083 1.72609C144.086 1.49855 144.028 1.271 143.888 1.09041C143.707 0.862863 143.443 0.73645 143.162 0.73645H141.323C140.659 0.73645 140.113 1.26017 140.084 1.92474L139.987 4.15324C139.788 8.77638 139.579 13.5621 139.34 18.2611C139.221 20.6449 138.192 22.6892 136.288 24.3398C135.049 25.4125 133.713 25.5497 132.416 24.7407C131.272 24.0219 131.055 22.8589 131.076 22.0065C131.116 20.3559 131.246 18.6764 131.369 17.0511C131.427 16.3143 131.481 15.5775 131.532 14.8406C131.672 12.7024 130.769 12.9553 129.18 12.8686C128.317 12.8216 128.071 12.8686 127.822 13.2117C127.642 13.4573 127.472 14.2339 127.472 14.2339C127.472 14.2339 123.712 12.0668 119.562 13.591C117.366 14.4 115.78 16.2023 115.033 18.5392C114.303 20.8182 114.65 23.1515 115.983 24.9393C117.146 26.4996 119.049 27.5687 121.205 27.8649C123.401 28.1683 125.576 27.6374 127.172 26.4057C127.544 26.1204 127.927 25.8098 127.927 25.8098C127.927 25.8098 128.216 26.2504 128.443 26.6224C128.938 27.4315 129.617 28.0636 130.415 28.4464C131.416 28.9268 132.431 29.1688 133.446 29.1688C135.01 29.1688 136.574 28.6017 138.069 27.4712C138.759 26.9511 139.344 26.3154 139.965 25.6472C140.196 25.3944 140.435 25.138 140.684 24.8815L140.865 25.0405C140.872 25.0477 140.879 25.0513 140.883 25.0585C142.992 26.915 145.773 27.948 148.569 27.6265C154.633 26.9475 157.186 21.295 154.9 16.4876ZM122.079 24.2386C117.594 24.1772 117.886 16.5779 122.513 16.8705C128.364 16.9861 127.714 24.6793 122.079 24.2386ZM143.508 20.1464C143.075 14.8515 151.769 14.7503 151.859 20.1356C151.7 25.1127 143.696 25.138 143.508 20.1464Z" fill="#1C42A3"/>
<path id="Vector_2" d="M197.267 24.7587C197.227 24.719 197.188 24.6829 197.148 24.6431C196.014 23.509 194.876 22.3749 193.742 21.2444C192.951 20.457 190.91 18.3802 190.91 18.3802C190.91 18.3802 191.116 18.3513 191.196 18.3405C193.547 18.019 195.422 16.9319 196.617 15.1982C198.029 13.1467 198.152 10.7195 197.888 9.58903C197.415 7.55557 196.353 5.95192 194.735 4.82141C191.882 2.8313 187.801 3.00105 185.717 4.1749C182.563 5.95192 180.512 9.90326 178.627 14.5264C177.709 16.7766 175.307 25.3186 167.34 24.9285C164.158 24.7732 162.904 23.1298 162.633 22.6169L171.576 19.4746C172.154 19.2868 172.624 18.8859 172.895 18.3405C173.165 17.7987 173.205 17.1883 173.007 16.6177C172.021 13.7679 169.489 9.22062 163.627 10.7484C160.087 11.6731 157.786 14.2375 157.313 17.7879C156.844 21.2986 158.747 25.3438 161.741 27.1931C163.775 28.45 165.971 29.0821 168.181 29.0821C170.352 29.0821 172.533 28.4753 174.578 27.2617C176.864 25.9073 180.429 22.4219 182.43 15.144C182.426 15.2199 182.423 15.3355 182.419 15.4583C182.289 18.6583 182.072 24.1989 182.058 26.915C182.054 27.6121 182.051 28.4825 183.286 28.5078C184.449 28.5331 185.11 28.4789 185.485 28.1105C185.792 27.8107 185.839 27.3484 185.839 26.933C185.847 25.835 185.843 21.555 185.839 18.8064L185.872 18.8317C185.93 18.875 189.3 21.9704 190.589 23.202C191.954 24.5059 193.319 25.8061 194.688 27.1064C195.674 28.0419 196.52 27.5615 197.484 26.5574C198.268 25.7303 197.665 25.1452 197.267 24.7587ZM161.189 19.4168C160.817 17.0222 162.113 15.144 163.663 14.5517C163.984 14.4289 165.707 13.786 167.112 14.5589C168.185 15.1476 168.676 15.9747 168.969 16.8163C168.221 17.0547 162.348 19.0773 161.189 19.4168ZM185.72 11.5358C185.251 6.39256 193.634 4.86476 194.15 10.4306C194.836 15.7111 186.175 16.7188 185.72 11.5358Z" fill="#1C42A3"/>
<path id="Vector_3" d="M123.062 0.750854H96.2583C95.4962 0.750854 94.875 1.37209 94.875 2.13418V3.91482C94.875 4.47826 95.3337 4.93696 95.8971 4.93696H107.672V27.1353C107.672 27.9263 108.315 28.5692 109.106 28.5692H110.691C111.385 28.5692 111.948 28.0057 111.948 27.3123V4.93696H123.058C123.622 4.93696 124.08 4.47826 124.08 3.91482V1.773C124.087 1.20955 123.625 0.750854 123.062 0.750854Z" fill="#1C42A3"/>
<path id="Vector_4" d="M23.1498 15.2704C23.1643 15.2704 23.1787 15.2704 23.1896 15.2704C24.7029 15.2488 25.9851 14.111 25.9924 12.7891C25.996 12.1137 25.7215 11.4636 25.223 10.9615C24.721 10.4559 24.0384 10.1669 23.3449 10.1669C23.3449 10.1669 23.3449 10.1669 23.3413 10.1669C21.8315 10.1669 20.4843 11.4383 20.4554 12.883C20.4446 13.4393 20.683 13.9919 21.1272 14.4361C21.6582 14.9707 22.3914 15.2704 23.1498 15.2704Z" fill="#1C42A3"/>
<path id="Vector_5" d="M48.8712 18.6258C48.5678 16.0361 46.527 13.6451 43.9085 12.8108C40.4303 11.4672 37.0893 13.5187 37.0893 13.5187L37.288 3.31167C37.3458 1.02538 37.4036 0.859233 34.7958 0.71476C34.106 0.67503 33.51 1.1843 33.4125 1.86693C33.2175 3.22137 33.1741 4.51441 33.1272 5.81828C32.9177 10.2644 32.7046 14.8226 32.5601 19.3265C32.4951 21.3636 31.5777 22.8878 29.584 24.2639C29.0386 24.6395 28.3957 24.7443 27.8069 24.6431C25.7482 24.2928 25.6362 21.555 25.5279 20.3414C25.3329 18.0913 25.1559 17.7337 23.0791 17.9685C21.8691 18.1057 20.9987 19.1604 21.0998 20.3703C21.2009 21.5875 21.4357 22.7505 21.6596 23.8738C22.1436 26.2901 24.0542 28.0563 26.5283 28.3778C26.9076 28.4247 27.276 28.45 27.6372 28.45C29.891 28.45 31.8486 27.5145 33.4775 25.6617C33.7086 25.398 34.1132 24.9574 34.1132 24.9574C34.1132 24.9574 34.5033 25.2788 34.8067 25.5244C37.7539 27.8793 42.229 28.1863 45.4399 26.2576C48.1235 24.6431 49.2757 22.0787 48.8712 18.6258ZM36.804 20.0272C36.3706 14.7323 45.0643 14.6311 45.1546 20.0164C44.9956 24.9899 36.9954 25.0152 36.804 20.0272Z" fill="#1C42A3"/>
<path id="Vector_6" d="M90.4118 24.7587C90.372 24.719 90.3323 24.6829 90.2926 24.6431C89.1585 23.509 88.0208 22.3749 86.8867 21.2444C86.0957 20.457 84.0549 18.3802 84.0549 18.3802C84.0549 18.3802 84.2608 18.3513 84.3403 18.3405C86.6916 18.019 88.5661 16.9319 89.7617 15.1982C91.1739 13.1467 91.2967 10.7195 91.033 9.58903C90.5599 7.55557 89.498 5.95192 87.8799 4.82141C85.0266 2.8313 80.9452 3.00105 78.8611 4.1749C75.708 5.95192 73.6565 9.90326 71.7711 14.5264C70.8537 16.7766 68.4518 25.3186 60.4841 24.9285C57.3021 24.7732 56.0488 23.1298 55.778 22.6169L64.7208 19.4746C65.2987 19.2868 65.7682 18.8859 66.0391 18.3405C66.31 17.7987 66.3498 17.1883 66.1511 16.6177C65.1651 13.7679 62.6332 9.22062 56.7712 10.7484C53.2316 11.6731 50.9308 14.2375 50.4577 17.7879C49.9882 21.2986 51.8916 25.3438 54.8858 27.1931C56.9193 28.45 59.1153 29.0821 61.3257 29.0821C63.4964 29.0821 65.678 28.4753 67.7223 27.2617C70.0085 25.9073 73.5734 22.4219 75.5744 15.144C75.5708 15.2199 75.5671 15.3355 75.5635 15.4583C75.4335 18.6583 75.2168 24.1989 75.2023 26.915C75.1987 27.6121 75.1951 28.4825 76.4304 28.5078C77.5934 28.5331 78.2543 28.4789 78.63 28.1105C78.937 27.8107 78.984 27.3484 78.984 26.933C78.9912 25.835 78.9876 21.555 78.984 18.8064L79.0165 18.8317C79.0742 18.875 82.4441 21.9704 83.7335 23.202C85.0988 24.5059 86.4641 25.8061 87.8329 27.1064C88.819 28.0419 89.6641 27.5615 90.6285 26.5574C91.4123 25.7303 90.8091 25.1452 90.4118 24.7587ZM54.3332 19.4168C53.9612 17.0222 55.2578 15.144 56.8073 14.5517C57.1288 14.4289 58.8516 13.786 60.2566 14.5589C61.3293 15.1476 61.8205 15.9747 62.1131 16.8163C61.3654 17.0547 55.4926 19.0773 54.3332 19.4168ZM78.8647 11.5358C78.3952 6.39256 86.7783 4.86476 87.2947 10.4306C87.981 15.7111 79.3198 16.7188 78.8647 11.5358Z" fill="#1C42A3"/>
<path id="Vector_7" d="M28.1867 0.750854H1.38332C0.617607 0.750854 0 1.37209 0 2.13418V3.91482C0 4.48187 0.458687 4.93696 1.02213 4.93696H12.7967V27.1353C12.7967 27.9263 13.4396 28.5692 14.2306 28.5692H15.8162C16.5097 28.5692 17.0731 28.0057 17.0731 27.3123V4.93696H28.1831C28.7466 4.93696 29.2053 4.47826 29.2053 3.91482V1.773C29.2089 1.20594 28.7538 0.750854 28.1867 0.750854Z" fill="#1C42A3"/>
</g>
</g>
<defs>
<clipPath id="clip0_0_1">
<rect width="1466" height="3710" fill="white" transform="translate(-61 -27)"/>
</clipPath>
</defs>
</svg>
